<?xml version="1.0" standalone="no"?>
<!DOCTYPE svg PUBLIC "-//W3C//DTD SVG 20010904//EN"
 "http://www.w3.org/TR/2001/REC-SVG-20010904/DTD/svg10.dtd">
<svg version="1.0" xmlns="http://www.w3.org/2000/svg"
 width="512.000000pt" height="512.000000pt" viewBox="0 0 512.000000 512.000000"
 preserveAspectRatio="xMidYMid meet">

<g transform="translate(0.000000,512.000000) scale(0.100000,-0.100000)"
fill="#FFFFFF" stroke="none">
<path d="M800 4766 c-386 -82 -676 -361 -773 -746 -31 -122 -30 -339 1 -464
46 -182 142 -347 280 -477 285 -270 697 -348 1061 -200 310 126 534 408 597
752 l18 94 12 -80 c15 -103 27 -148 69 -244 206 -483 771 -720 1264 -531 291
112 517 366 603 678 18 63 22 106 22 242 1 143 -2 176 -22 250 -94 343 -350
605 -688 705 -121 37 -330 46 -454 21 -240 -49 -441 -168 -585 -348 -123 -155
-212 -368 -216 -523 -1 -29 -7 -10 -24 70 -28 133 -54 207 -101 294 -133 244
-346 414 -614 491 -96 28 -350 37 -450 16z m285 -580 c202 -48 338 -250 305
-453 -11 -63 -57 -165 -93 -205 -107 -116 -273 -165 -417 -122 -132 39 -246
155 -280 283 -15 59 -13 175 4 232 39 126 144 225 276 261 80 21 128 22 205 4z
m1966 4 c257 -49 401 -343 282 -577 -34 -68 -110 -146 -171 -177 -273 -137
-592 57 -592 358 0 120 42 218 124 294 99 91 224 127 357 102z"/>
<path d="M1571 2774 c-74 -46 -185 -91 -300 -122 -84 -22 -117 -25 -266 -26
-106 -1 -192 4 -230 12 -88 19 -212 60 -266 87 l-47 24 -38 -28 c-102 -74
-173 -188 -194 -309 -7 -47 -10 -313 -8 -872 3 -797 3 -806 25 -862 60 -157
171 -264 332 -319 52 -18 110 -19 1406 -19 1296 0 1354 1 1406 19 93 31 141
61 204 125 74 74 111 138 136 235 18 70 19 119 19 845 0 490 -4 795 -11 836
-19 122 -103 255 -204 327 l-31 21 -67 -29 c-313 -133 -652 -131 -952 6 -40
18 -90 45 -111 59 l-39 26 -355 -1 -355 -1 -54 -34z"/>
<path d="M4794 2557 c-34 -17 -244 -138 -467 -267 l-406 -235 -1 -487 0 -487
118 -70 c64 -38 270 -158 457 -267 l340 -198 72 -1 c63 0 76 3 114 30 23 17
52 48 64 71 22 41 22 45 29 907 8 951 10 905 -52 970 -71 75 -167 88 -268 34z"/>
</g>
</svg>
