<?xml version="1.0" standalone="no"?>
<!DOCTYPE svg PUBLIC "-//W3C//DTD SVG 20010904//EN"
 "http://www.w3.org/TR/2001/REC-SVG-20010904/DTD/svg10.dtd">
<svg version="1.0" xmlns="http://www.w3.org/2000/svg"
 width="512.000000pt" height="512.000000pt" viewBox="0 0 512.000000 512.000000"
 preserveAspectRatio="xMidYMid meet">

<g transform="translate(0.000000,512.000000) scale(0.100000,-0.100000)"
fill="#FFFFFF" stroke="none">
<path d="M426 5097 c-21 -12 -47 -38 -57 -57 -18 -33 -19 -105 -19 -1998 l0
-1963 44 26 c70 41 197 83 287 95 102 13 4044 10 4072 -4 16 -8 17 83 15 1910
l-3 1919 -22 31 c-50 69 135 64 -2185 64 l-2093 0 -39 -23z m1195 -381 c118
-41 223 -127 285 -232 l24 -41 101 33 c188 62 298 79 529 79 231 0 348 -17
532 -79 l98 -33 24 41 c63 107 166 190 290 234 91 32 232 36 316 8 210 -70
352 -234 382 -442 23 -163 -33 -326 -153 -447 l-69 -69 50 -101 c104 -216 143
-382 144 -617 1 -160 0 -168 -30 -251 -83 -233 -245 -374 -511 -445 -10 -3
-13 -75 -13 -321 0 -198 -4 -333 -11 -357 -14 -51 -55 -91 -108 -107 -37 -11
-47 -10 -89 7 -28 12 -55 32 -69 53 -22 32 -23 44 -23 202 0 93 -2 169 -5 169
-3 0 -45 -32 -92 -70 -103 -83 -271 -170 -388 -200 -352 -90 -698 -8 -977 232
l-58 50 0 -175 c0 -164 -1 -176 -23 -208 -14 -21 -41 -41 -69 -53 -42 -17 -52
-18 -89 -7 -53 16 -94 56 -108 107 -7 24 -11 159 -11 357 0 246 -3 318 -12
321 -161 43 -251 91 -348 186 -76 75 -130 161 -168 269 -25 70 -27 88 -26 236
0 235 40 407 144 622 l50 101 -69 69 c-120 121 -176 284 -153 447 25 176 137
329 297 407 44 21 105 43 135 48 77 14 194 4 271 -23z"/>
<path d="M1395 4441 c-149 -38 -224 -200 -155 -335 14 -27 37 -58 52 -69 l27
-20 90 86 c50 47 127 112 171 143 44 32 80 61 80 66 0 16 -81 96 -113 111 -41
19 -113 28 -152 18z"/>
<path d="M3611 4439 c-31 -8 -58 -25 -98 -64 -30 -29 -54 -58 -52 -63 2 -5 42
-38 87 -72 46 -33 121 -97 167 -141 94 -90 100 -91 147 -22 125 182 -34 412
-251 362z"/>
<path d="M2340 4245 c-201 -32 -428 -126 -590 -246 -234 -172 -404 -421 -477
-698 -21 -79 -26 -121 -27 -236 -1 -134 0 -142 28 -202 33 -72 113 -153 178
-183 l43 -19 5 312 c3 202 9 321 17 338 26 59 108 100 169 85 14 -4 217 -92
450 -195 l424 -189 425 189 c233 103 436 191 450 195 60 15 142 -26 168 -85 8
-17 14 -136 17 -339 l5 -313 52 26 c116 58 194 182 201 322 15 285 -120 618
-345 850 -199 204 -474 344 -763 388 -116 18 -316 18 -430 0z"/>
<path d="M1800 2888 c1 -337 56 -497 235 -674 77 -78 106 -99 186 -138 125
-61 207 -79 344 -79 215 1 368 66 525 223 109 109 154 183 195 325 23 78 27
115 32 278 5 157 4 187 -8 187 -8 0 -167 -68 -354 -151 -225 -100 -355 -153
-385 -156 -41 -4 -78 11 -394 152 -192 85 -355 155 -362 155 -11 0 -14 -26
-14 -122z"/>
<path d="M680 896 c-81 -17 -165 -63 -224 -122 -251 -251 -135 -669 211 -759
50 -13 314 -15 2035 -15 1963 0 1979 0 2018 20 100 51 105 198 9 255 -34 20
-57 20 -2021 25 l-1987 5 -27 21 c-51 38 -69 71 -69 129 0 58 18 91 69 129
l27 21 1994 5 1994 5 28 21 c85 63 80 180 -11 248 l-27 21 -1982 2 c-1510 1
-1995 -1 -2037 -11z"/>
</g>
</svg>
