<?xml version="1.0" standalone="no"?>
<!DOCTYPE svg PUBLIC "-//W3C//DTD SVG 20010904//EN"
 "http://www.w3.org/TR/2001/REC-SVG-20010904/DTD/svg10.dtd">
<svg version="1.0" xmlns="http://www.w3.org/2000/svg"
 width="512.000000pt" height="512.000000pt" viewBox="0 0 512.000000 512.000000"
 preserveAspectRatio="xMidYMid meet">

<g transform="translate(0.000000,512.000000) scale(0.100000,-0.100000)"
fill="#FFFFFF" stroke="none">
<path d="M880 5105 c-456 -80 -801 -434 -869 -892 -15 -100 -15 -3206 0 -3306
70 -467 429 -826 896 -896 100 -15 3206 -15 3306 0 467 70 826 429 896 896 15
100 15 3206 0 3306 -70 467 -429 826 -896 896 -114 17 -3235 13 -3333 -4z
m2948 -2222 l-3 -1408 -23 -58 c-45 -111 -133 -195 -246 -234 -42 -15 -84 -18
-251 -18 -167 0 -209 3 -251 18 -165 57 -266 199 -268 372 -2 172 92 313 251
376 53 21 78 23 276 27 l217 4 0 734 c0 581 -3 734 -12 733 -7 0 -330 -55
-718 -122 l-705 -123 -5 -1004 -5 -1005 -23 -58 c-45 -111 -133 -195 -246
-234 -75 -26 -427 -26 -502 0 -165 57 -266 199 -268 372 -2 172 92 313 251
376 53 21 78 23 276 27 l217 4 0 1137 0 1137 363 63 c199 34 655 113 1012 176
358 62 653 113 658 114 4 1 6 -632 5 -1406z"/>
</g>
</svg>
