<?xml version="1.0" standalone="no"?>
<!DOCTYPE svg PUBLIC "-//W3C//DTD SVG 20010904//EN"
 "http://www.w3.org/TR/2001/REC-SVG-20010904/DTD/svg10.dtd">
<svg version="1.0" xmlns="http://www.w3.org/2000/svg"
 width="512.000000pt" height="512.000000pt" viewBox="0 0 512.000000 512.000000"
 preserveAspectRatio="xMidYMid meet">

<g transform="translate(0.000000,512.000000) scale(0.100000,-0.100000)"
fill="#FFFFFF" stroke="none">
<path d="M1935 4149 c-941 -358 -1734 -662 -1762 -676 -68 -33 -125 -95 -152
-167 l-21 -58 2 -1346 3 -1347 25 -50 c31 -64 91 -124 155 -155 l50 -25 2305
-3 c2091 -2 2310 -1 2356 14 77 24 142 78 183 154 l36 65 0 1365 0 1365 -34
63 c-38 70 -69 100 -145 140 l-51 27 -1845 3 -1845 3 1285 489 c1158 441 1288
493 1317 524 94 101 19 268 -119 266 -18 -1 -792 -290 -1743 -651z m-116
-1294 c179 -44 320 -124 456 -260 137 -137 216 -276 262 -461 24 -95 24 -333
0 -428 -46 -182 -128 -328 -261 -462 -134 -133 -280 -215 -462 -261 -95 -24
-333 -24 -428 0 -182 46 -328 128 -462 261 -133 134 -215 280 -261 462 -24 95
-24 333 0 428 93 370 387 656 747 725 30 6 64 13 75 15 40 10 272 -3 334 -19z
m2661 -455 l0 -160 -640 0 -640 0 0 160 0 160 640 0 640 0 0 -160z m0 -640 l0
-160 -640 0 -640 0 0 160 0 160 640 0 640 0 0 -160z m0 -640 l0 -160 -640 0
-640 0 0 160 0 160 640 0 640 0 0 -160z"/>
<path d="M1462 2545 c-180 -39 -350 -171 -431 -335 -126 -256 -80 -543 118
-740 254 -252 650 -253 901 -1 253 254 253 648 0 902 -155 155 -374 220 -588
174z"/>
</g>
</svg>
