<?xml version="1.0" standalone="no"?>
<!DOCTYPE svg PUBLIC "-//W3C//DTD SVG 20010904//EN"
 "http://www.w3.org/TR/2001/REC-SVG-20010904/DTD/svg10.dtd">
<svg version="1.0" xmlns="http://www.w3.org/2000/svg"
 width="512.000000pt" height="512.000000pt" viewBox="0 0 512.000000 512.000000"
 preserveAspectRatio="xMidYMid meet">

<g transform="translate(0.000000,512.000000) scale(0.100000,-0.100000)"
fill="#FFFFFF" stroke="none">
<path d="M1450 5028 c-58 -40 -75 -72 -75 -141 l0 -62 288 -472 c158 -259 287
-474 287 -477 0 -3 -371 -6 -825 -6 -811 0 -825 0 -880 -21 -74 -28 -132 -73
-177 -139 -72 -106 -68 1 -68 -1740 0 -1741 -4 -1634 68 -1740 45 -66 103
-111 177 -139 l56 -21 2259 0 2259 0 56 21 c74 28 132 73 177 139 72 106 68
-1 68 1740 0 1741 4 1634 -68 1740 -45 66 -103 111 -177 139 -55 21 -69 21
-880 21 -454 0 -825 3 -825 6 0 3 129 218 288 477 l287 472 0 62 c0 69 -17
101 -75 141 -46 31 -119 30 -174 -2 -37 -22 -77 -83 -385 -590 l-345 -566
-206 0 -206 0 -345 566 c-308 507 -348 568 -385 590 -55 32 -128 33 -174 2z
m2031 -1796 c43 -22 59 -38 81 -81 l28 -53 0 -1128 0 -1128 -28 -53 c-22 -43
-38 -59 -81 -81 l-53 -28 -1329 0 c-1467 0 -1367 -4 -1437 63 -64 62 -62 17
-62 1227 0 1211 -2 1165 62 1227 69 67 -32 62 1434 63 l1332 0 53 -28z m1004
-275 c172 -80 248 -288 168 -458 -38 -81 -91 -134 -172 -172 -170 -80 -377 -4
-458 168 -24 52 -28 72 -28 150 0 106 19 158 85 229 79 86 154 117 270 113 57
-2 89 -9 135 -30z m-5 -1343 c74 -33 142 -103 176 -178 36 -79 38 -183 5 -268
-29 -75 -99 -149 -176 -185 -52 -24 -72 -28 -150 -28 -78 0 -97 4 -146 28 -67
32 -142 109 -172 175 -33 73 -31 207 5 284 82 175 284 250 458 172z"/>
</g>
</svg>
